<?xml version="1.0" standalone="no"?>
<!DOCTYPE svg PUBLIC "-//W3C//DTD SVG 20010904//EN"
 "http://www.w3.org/TR/2001/REC-SVG-20010904/DTD/svg10.dtd">
<svg version="1.0" xmlns="http://www.w3.org/2000/svg"
 width="500.000000pt" height="500.000000pt" viewBox="0 0 500.000000 500.000000"
 preserveAspectRatio="xMidYMid meet">

<g transform="translate(0.000000,500.000000) scale(0.100000,-0.100000)"
fill="currentColor" stroke="none">
<path d="M1503 4856 c-141 -23 -307 -119 -392 -226 -58 -73 -127 -204 -145
-276 -18 -71 -21 -234 -6 -314 18 -96 34 -90 -253 -87 -217 2 -263 -1 -330
-17 -90 -21 -169 -69 -241 -146 -73 -78 -96 -141 -107 -290 -11 -162 -10
-2552 1 -2649 6 -44 20 -95 35 -127 35 -71 149 -177 234 -218 l66 -31 1408 -3
1407 -2 -5 22 c-9 40 -35 260 -42 351 l-6 87 -1296 0 c-713 0 -1306 3 -1318 6
-23 6 -23 7 -23 213 0 113 3 216 6 228 l6 23 1391 2 1391 3 50 75 c73 112 260
293 376 365 167 103 189 110 473 160 131 24 307 11 438 -30 18 -6 19 18 19
787 0 876 1 860 -63 967 -32 54 -132 148 -190 177 -65 34 -99 38 -387 43
l-295 6 2 65 c8 302 9 301 -20 373 -39 101 -122 231 -185 293 -62 62 -191 136
-272 157 -87 23 -207 30 -297 17 -210 -28 -332 -110 -517 -343 -67 -85 -80
-97 -93 -85 -8 7 -48 53 -88 103 -152 189 -262 272 -407 309 -86 22 -230 27
-325 12z m202 -456 c82 -31 165 -142 165 -220 0 -47 -40 -129 -84 -173 -85
-85 -222 -74 -311 25 -56 61 -76 114 -66 174 7 49 43 115 77 145 59 52 156 73
219 49z m1397 -4 c133 -48 199 -209 129 -317 -39 -61 -79 -96 -130 -114 -101
-35 -184 -10 -246 76 -77 108 -79 140 -13 252 34 59 47 72 91 93 58 27 113 30
169 10z m-549 -1067 c287 -387 440 -600 509 -706 23 -35 44 -63 48 -63 10 0
320 222 364 261 12 10 -16 53 -180 274 -74 99 -167 227 -208 285 l-74 105 571
5 c315 3 575 4 580 2 11 -5 9 -1400 -3 -1407 -6 -4 -7 -11 -4 -17 5 -7 2 -8
-7 -2 -8 5 -772 11 -1826 14 -996 3 -1815 9 -1820 13 -9 9 -17 1338 -8 1375
l5 22 570 0 c397 0 571 -3 576 -11 3 -6 -5 -23 -19 -37 -13 -15 -47 -61 -75
-102 -61 -90 -147 -207 -261 -355 -77 -101 -112 -159 -101 -168 5 -4 215 -156
294 -213 28 -20 55 -38 62 -41 6 -2 64 69 128 159 64 90 147 204 184 254 37
50 147 201 245 335 97 134 189 259 204 278 l26 34 19 -24 c10 -13 101 -135
201 -270z"/>
</g>
</svg>
