<?xml version="1.0" standalone="no"?>
<!DOCTYPE svg PUBLIC "-//W3C//DTD SVG 20010904//EN"
 "http://www.w3.org/TR/2001/REC-SVG-20010904/DTD/svg10.dtd">
<svg version="1.0" xmlns="http://www.w3.org/2000/svg"
 width="500.000000pt" height="500.000000pt" viewBox="0 0 500.000000 500.000000"
 preserveAspectRatio="xMidYMid meet">

<g transform="translate(0.000000,500.000000) scale(0.100000,-0.100000)"
fill="currentColor" stroke="none">
<path d="M836 4774 c-3 -9 -6 -735 -6 -1613 l0 -1598 -227 -6 c-124 -4 -279
-7 -344 -7 l-117 0 -8 -87 c-10 -121 2 -675 16 -748 14 -69 45 -142 96 -223
94 -149 279 -279 430 -302 73 -11 2467 -10 2478 1 4 3 -10 41 -30 84 -40 86
-63 186 -89 379 -17 123 -17 129 5 263 28 182 42 228 105 355 58 117 100 182
156 243 l37 40 -1007 0 c-553 0 -1014 3 -1023 7 -17 7 -18 76 -18 1258 0 844
3 1258 10 1271 11 19 35 19 1280 19 l1270 0 0 -1106 0 -1106 23 5 c12 3 101
17 197 31 96 14 190 28 208 31 l33 6 -1 1410 -2 1410 -110 -103 c-151 -141
-228 -208 -238 -208 -9 0 -114 96 -277 254 l-62 59 -28 -18 c-15 -10 -92 -81
-170 -157 -85 -83 -150 -138 -162 -138 -12 0 -47 30 -88 75 -37 42 -110 112
-162 155 -78 66 -97 77 -113 69 -10 -5 -85 -75 -167 -154 -83 -81 -158 -145
-168 -145 -10 0 -42 27 -71 59 -83 95 -249 241 -273 241 -14 0 -74 -52 -178
-154 -100 -98 -161 -152 -171 -148 -8 2 -85 74 -172 159 -133 132 -159 153
-175 145 -26 -15 -273 -242 -273 -251 0 -5 -16 -21 -35 -36 l-36 -27 -168 161
c-126 121 -170 157 -175 145z"/>
<path d="M1426 3542 c-2 -4 -6 -55 -8 -113 -2 -79 1 -110 11 -122 12 -16 98
-17 1050 -17 570 0 1046 3 1059 6 21 6 22 10 22 130 l0 124 -1064 0 c-586 0
-1067 -4 -1070 -8z"/>
<path d="M1427 3013 c-12 -12 -8 -470 5 -498 l11 -25 1012 0 c557 0 1033 3
1059 6 l46 7 0 258 0 259 -1063 0 c-585 0 -1067 -3 -1070 -7z"/>
<path d="M4150 1404 c-151 -28 -208 -50 -307 -121 -190 -135 -284 -332 -270
-563 11 -171 65 -294 178 -409 90 -90 163 -138 262 -172 192 -67 383 -44 552
66 179 117 271 259 305 470 18 112 -7 260 -63 370 -68 136 -249 292 -387 336
-63 20 -216 33 -270 23z"/>
</g>
</svg>
